<svg width="205" height="65" viewBox="0 0 205 65" fill="none" xmlns="http://www.w3.org/2000/svg">
<g clip-path="url(#clip0_200_10510)">
<path d="M14.0728 1.3877C24.1851 1.3877 29.6866 6.90037 29.6866 17.1216V22.0997C29.6866 32.321 24.1851 37.8336 14.0728 37.8336H9.90261V63.6121H0.5V1.3877H14.0728ZM9.90261 29.123H13.7156C18.2383 29.123 20.2793 26.7246 20.2793 21.4769V17.7444C20.2793 12.5014 18.2383 10.0983 13.7156 10.0983H9.90261V29.1184V29.123Z" fill="#0A203B"/>
<path d="M66.4112 16.2339V48.7661C66.4112 58.5458 60.6453 64.5 51.2427 64.5C41.8401 64.5 36.0742 58.5458 36.0742 48.7661V16.2339C36.0742 6.45424 41.8401 0.5 51.2427 0.5C60.6453 0.5 66.4112 6.45424 66.4112 16.2339ZM45.4768 16.3222V48.6778C45.4768 53.298 47.5178 55.7894 51.2427 55.7894C54.9676 55.7894 57.0086 53.3027 57.0086 48.6778V16.3222C57.0086 11.702 54.9676 9.21058 51.2427 9.21058C47.5178 9.21058 45.4768 11.6973 45.4768 16.3222Z" fill="#0A203B"/>
<path d="M89.0335 1.3877C99.1458 1.3877 104.647 6.90037 104.647 17.1216V47.8782C104.647 58.0994 99.1458 63.6121 89.0335 63.6121H75.5488V1.3877H89.0335ZM84.9514 54.9015H88.6763C93.199 54.9015 95.24 52.5031 95.24 47.2554V17.7444C95.24 12.5014 93.199 10.0983 88.6763 10.0983H84.9514V54.8969V54.9015Z" fill="#0A203B"/>
<path d="M113.785 63.6121V1.3877H123.188V63.6121H113.785Z" fill="#0A203B"/>
<path d="M162.663 16.2339V48.7661C162.663 58.5458 156.897 64.5 147.495 64.5C138.092 64.5 132.326 58.5458 132.326 48.7661V16.2339C132.326 6.45424 138.092 0.5 147.495 0.5C156.897 0.5 162.663 6.45424 162.663 16.2339ZM141.729 16.3222V48.6778C141.729 53.298 143.77 55.7894 147.495 55.7894C151.22 55.7894 153.261 53.3027 153.261 48.6778V16.3222C153.261 11.702 151.22 9.21058 147.495 9.21058C143.77 9.21058 141.729 11.6973 141.729 16.3222Z" fill="#0A203B"/>
<path d="M204.388 54.7808H194.452L186.733 35.7421H186.557L179.283 54.7808H169.523L181.412 26.6876L170.238 0.602295H180.174L187.095 17.8608H187.271L193.923 0.602295H203.683L192.503 26.9943L204.392 54.7808H204.388Z" fill="#FFBD00"/>
<path d="M204.499 58.2388H169.709V64.2813H204.499V58.2388Z" fill="#0A203B"/>
</g>
<defs>
<clipPath id="clip0_200_10510">
<rect width="204" height="64" fill="white" transform="translate(0.5 0.5)"/>
</clipPath>
</defs>
</svg>
