<svg width="17" height="16" viewBox="0 0 17 16" fill="none" xmlns="http://www.w3.org/2000/svg">
<path d="M13.4167 12.667H4.08333V5.33366H13.4167M11.4167 0.666992V2.00033H6.08333V0.666992H4.75V2.00033H4.08333C3.34333 2.00033 2.75 2.59366 2.75 3.33366V12.667C2.75 13.0206 2.89048 13.3598 3.14052 13.6098C3.39057 13.8598 3.72971 14.0003 4.08333 14.0003H13.4167C13.7703 14.0003 14.1094 13.8598 14.3595 13.6098C14.6095 13.3598 14.75 13.0206 14.75 12.667V3.33366C14.75 2.98004 14.6095 2.6409 14.3595 2.39085C14.1094 2.1408 13.7703 2.00033 13.4167 2.00033H12.75V0.666992M12.0833 8.00033H8.75V11.3337H12.0833V8.00033Z" fill="#0A203B"/>
</svg>
