<svg width="102" height="32" viewBox="0 0 102 32" fill="none" xmlns="http://www.w3.org/2000/svg">
<g clip-path="url(#clip0_70_3336)">
<path d="M6.78639 0.443909C11.8426 0.443909 14.5933 3.20025 14.5933 8.31086V10.7999C14.5933 15.9105 11.8426 18.6669 6.78639 18.6669H4.70131V31.5561H0V0.443909H6.78639ZM4.70131 14.3116H6.6078C8.86916 14.3116 9.88967 13.1124 9.88967 10.4885V8.62228C9.88967 6.00074 8.86916 4.7992 6.6078 4.7992H4.70131V14.3093V14.3116Z" fill="#D8EAFF"/>
<path d="M32.9555 7.86695V24.1331C32.9555 29.0229 30.0726 32 25.3713 32C20.67 32 17.787 29.0229 17.787 24.1331V7.86695C17.787 2.97712 20.67 0 25.3713 0C30.0726 0 32.9555 2.97712 32.9555 7.86695ZM22.4884 7.9111V24.0889C22.4884 26.399 23.5089 27.6447 25.3713 27.6447C27.2337 27.6447 28.2542 26.4013 28.2542 24.0889V7.9111C28.2542 5.60099 27.2337 4.35529 25.3713 4.35529C23.5089 4.35529 22.4884 5.59866 22.4884 7.9111Z" fill="#D8EAFF"/>
<path d="M44.2669 0.443909C49.3231 0.443909 52.0738 3.20025 52.0738 8.31086V23.6892C52.0738 28.7998 49.3231 31.5561 44.2669 31.5561H37.5246V0.443909H44.2669ZM42.2259 27.2008H44.0883C46.3497 27.2008 47.3702 26.0016 47.3702 23.3777V8.62228C47.3702 6.00074 46.3497 4.7992 44.0883 4.7992H42.2259V27.1985V27.2008Z" fill="#D8EAFF"/>
<path d="M56.6429 31.5561V0.443909H61.3442V31.5561H56.6429Z" fill="#D8EAFF"/>
<path d="M81.0818 7.86695V24.1331C81.0818 29.0229 78.1989 32 73.4976 32C68.7963 32 65.9133 29.0229 65.9133 24.1331V7.86695C65.9133 2.97712 68.7963 0 73.4976 0C78.1989 0 81.0818 2.97712 81.0818 7.86695ZM70.6146 7.9111V24.0889C70.6146 26.399 71.6351 27.6447 73.4976 27.6447C75.36 27.6447 76.3805 26.4013 76.3805 24.0889V7.9111C76.3805 5.60099 75.36 4.35529 73.4976 4.35529C71.6351 4.35529 70.6146 5.59866 70.6146 7.9111Z" fill="#D8EAFF"/>
<path d="M101.944 27.1404H96.9763L93.1169 17.6211H93.0288L89.3921 27.1404H84.5122L90.4566 13.0938L84.8694 0.0511475H89.8374L93.2978 8.68039H93.386L96.7119 0.0511475H101.592L96.0022 13.2472L101.947 27.1404H101.944Z" fill="#FFBD00"/>
<path d="M102 28.8695H84.6049V31.8908H102V28.8695Z" fill="#D8EAFF"/>
</g>
<defs>
<clipPath id="clip0_70_3336">
<rect width="102" height="32" fill="white"/>
</clipPath>
</defs>
</svg>
