<svg width="28" height="24" viewBox="0 0 28 24" fill="none" xmlns="http://www.w3.org/2000/svg">
<path d="M1.42941 5.14286H23.7151C24.1887 5.14286 24.5723 4.75929 24.5723 4.28571V0.857143C24.5723 0.383571 24.1887 0 23.7151 0H1.42941C0.955837 0 0.572266 0.383571 0.572266 0.857143V4.28571C0.572266 4.75929 0.955837 5.14286 1.42941 5.14286ZM27.1437 9.42857H4.85798C4.38441 9.42857 4.00084 9.81214 4.00084 10.2857V13.7143C4.00084 14.1879 4.38441 14.5714 4.85798 14.5714H27.1437C27.6173 14.5714 28.0008 14.1879 28.0008 13.7143V10.2857C28.0008 9.81214 27.6173 9.42857 27.1437 9.42857ZM23.7151 18.8571H1.42941C0.955837 18.8571 0.572266 19.2407 0.572266 19.7143V23.1429C0.572266 23.6164 0.955837 24 1.42941 24H23.7151C24.1887 24 24.5723 23.6164 24.5723 23.1429V19.7143C24.5723 19.2407 24.1887 18.8571 23.7151 18.8571Z" fill="#C1DDFE"/>
</svg>
