<svg width="29" height="28" viewBox="0 0 29 28" fill="none" xmlns="http://www.w3.org/2000/svg">
<path d="M13.333 3.5C18.4876 3.5 22.6668 7.6785 22.667 12.833C22.6696 14.9057 21.975 16.9194 20.6953 18.5498L24.6621 22.5049C24.8828 22.7239 25.0068 23.0221 25.0068 23.333C25.0068 23.6441 24.883 23.943 24.6621 24.1621C24.443 24.383 24.1441 24.5068 23.833 24.5068C23.5221 24.5068 23.2239 24.3828 23.0049 24.1621L19.0498 20.1953C17.4194 21.475 15.4057 22.1696 13.333 22.167C8.1785 22.1668 4 17.9876 4 12.833C4.00018 7.67861 8.17861 3.50018 13.333 3.5ZM13.333 5.83301C9.46727 5.83318 6.33318 8.96727 6.33301 12.833C6.33301 16.6989 9.46716 19.8328 13.333 19.833C17.199 19.833 20.333 16.699 20.333 12.833C20.3328 8.96716 17.1989 5.83301 13.333 5.83301Z" fill="#0A203B"/>
</svg>
