<svg width="18" height="20" viewBox="0 0 18 20" fill="none" xmlns="http://www.w3.org/2000/svg">
<path d="M9.25 10C12.0117 10 14.25 7.76172 14.25 5C14.25 2.23828 12.0117 0 9.25 0C6.48828 0 4.25 2.23828 4.25 5C4.25 7.76172 6.48828 10 9.25 10ZM12.75 11.25H12.0977C11.2305 11.6484 10.2656 11.875 9.25 11.875C8.23438 11.875 7.27344 11.6484 6.40234 11.25H5.75C2.85156 11.25 0.5 13.6016 0.5 16.5V18.125C0.5 19.1602 1.33984 20 2.375 20H16.125C17.1602 20 18 19.1602 18 18.125V16.5C18 13.6016 15.6484 11.25 12.75 11.25Z" fill="#FFEAAD"/>
</svg>
