<svg width="26" height="18" viewBox="0 0 26 18" fill="none" xmlns="http://www.w3.org/2000/svg">
<path d="M4.225 2.57143H2.275C1.73469 2.57143 1.3 3.00134 1.3 3.53571V7.71429H0.325C0.14625 7.71429 0 7.85893 0 8.03571V9.96429C0 10.1411 0.14625 10.2857 0.325 10.2857H1.3V14.4643C1.3 14.9987 1.73469 15.4286 2.275 15.4286H4.225C4.76531 15.4286 5.2 14.9987 5.2 14.4643V3.53571C5.2 3.00134 4.76531 2.57143 4.225 2.57143ZM25.675 7.71429H24.7V3.53571C24.7 3.00134 24.2653 2.57143 23.725 2.57143H21.775C21.2347 2.57143 20.8 3.00134 20.8 3.53571V14.4643C20.8 14.9987 21.2347 15.4286 21.775 15.4286H23.725C24.2653 15.4286 24.7 14.9987 24.7 14.4643V10.2857H25.675C25.8537 10.2857 26 10.1411 26 9.96429V8.03571C26 7.85893 25.8537 7.71429 25.675 7.71429ZM18.525 0H16.575C16.0347 0 15.6 0.429911 15.6 0.964286V7.71429H10.4V0.964286C10.4 0.429911 9.96531 0 9.425 0H7.475C6.93469 0 6.5 0.429911 6.5 0.964286V17.0357C6.5 17.5701 6.93469 18 7.475 18H9.425C9.96531 18 10.4 17.5701 10.4 17.0357V10.2857H15.6V17.0357C15.6 17.5701 16.0347 18 16.575 18H18.525C19.0653 18 19.5 17.5701 19.5 17.0357V0.964286C19.5 0.429911 19.0653 0 18.525 0Z" fill="#919EAB"/>
</svg>
