<svg width="27" height="18" viewBox="0 0 27 18" fill="none" xmlns="http://www.w3.org/2000/svg">
<path d="M4.725 2.57143H2.775C2.23469 2.57143 1.8 3.00134 1.8 3.53571V7.71429H0.825C0.64625 7.71429 0.5 7.85893 0.5 8.03571V9.96429C0.5 10.1411 0.64625 10.2857 0.825 10.2857H1.8V14.4643C1.8 14.9987 2.23469 15.4286 2.775 15.4286H4.725C5.26531 15.4286 5.7 14.9987 5.7 14.4643V3.53571C5.7 3.00134 5.26531 2.57143 4.725 2.57143ZM26.175 7.71429H25.2V3.53571C25.2 3.00134 24.7653 2.57143 24.225 2.57143H22.275C21.7347 2.57143 21.3 3.00134 21.3 3.53571V14.4643C21.3 14.9987 21.7347 15.4286 22.275 15.4286H24.225C24.7653 15.4286 25.2 14.9987 25.2 14.4643V10.2857H26.175C26.3537 10.2857 26.5 10.1411 26.5 9.96429V8.03571C26.5 7.85893 26.3537 7.71429 26.175 7.71429ZM19.025 0H17.075C16.5347 0 16.1 0.429911 16.1 0.964286V7.71429H10.9V0.964286C10.9 0.429911 10.4653 0 9.925 0H7.975C7.43469 0 7 0.429911 7 0.964286V17.0357C7 17.5701 7.43469 18 7.975 18H9.925C10.4653 18 10.9 17.5701 10.9 17.0357V10.2857H16.1V17.0357C16.1 17.5701 16.5347 18 17.075 18H19.025C19.5653 18 20 17.5701 20 17.0357V0.964286C20 0.429911 19.5653 0 19.025 0Z" fill="#0A203B"/>
</svg>
